PathFileType	4	(X/Y/Z)	C:/Users/opensim2020/Desktop/walking_exp_matlab/subject02_walking07_straight_03.trc																																																																																																																																																				
DataRate	CameraRate	NumFrames	NumMarkers	Units	OrigDataRate	OrigDataStartFrame	OrigNumFrames																																																																																																																																																
100	100	4	50	mm	100	2018	203																																																																																																																																																
Frame#	Time	LFHD			RFHD			LBHD			RBHD			C7			T10			CLAV			STRN			RBAK			LSHO			LUPA			LELB			LFRM			LWRA			LWRB			LFIN			RSHO			RUPA			RELB			RFRM			RWRA			RWRB			RFIN			LASI			RASI			LPSI			RPSI			LTHI			LKNE			LTIB			LANK			LHEE			LTOE			RTHI			RKNE			RTIB			RANK			RHEE			RTOE			*39			*40			*41			*42			*43			*44			*45			*46			*47			*48			*49		
		X1	Y1	Z1	X2	Y2	Z2	X3	Y3	Z3	X4	Y4	Z4	X5	Y5	Z5	X6	Y6	Z6	X7	Y7	Z7	X8	Y8	Z8	X9	Y9	Z9	X10	Y10	Z10	X11	Y11	Z11	X12	Y12	Z12	X13	Y13	Z13	X14	Y14	Z14	X15	Y15	Z15	X16	Y16	Z16	X17	Y17	Z17	X18	Y18	Z18	X19	Y19	Z19	X20	Y20	Z20	X21	Y21	Z21	X22	Y22	Z22	X23	Y23	Z23	X24	Y24	Z24	X25	Y25	Z25	X26	Y26	Z26	X27	Y27	Z27	X28	Y28	Z28	X29	Y29	Z29	X30	Y30	Z30	X31	Y31	Z31	X32	Y32	Z32	X33	Y33	Z33	X34	Y34	Z34	X35	Y35	Z35	X36	Y36	Z36	X37	Y37	Z37	X38	Y38	Z38	X39	Y39	Z39	X40	Y40	Z40	X41	Y41	Z41	X42	Y42	Z42	X43	Y43	Z43	X44	Y44	Z44	X45	Y45	Z45	X46	Y46	Z46	X47	Y47	Z47	X48	Y48	Z48	X49	Y49	Z49	X50	Y50	Z50
																																																																																																																																																							
26	0.25	-597.78082	1732.30823	1358.96912	-590.93103	1713.49707	1501.84619	-702.85309	1624.74219	1351.6178	-707.79449	1601.35791	1493.05762	-732.2619	1495.34277	1422.15527	-787.74561	1226.44812	1436.09277	-590.52454	1430.60535	1408.70349	-540.94641	1257.78784	1431.68237	-789.41022	1332.2251	1497.43152	-668.38611	1462.54016	1240.88342	-733.76953	1272.78247	1172.94885	-780.74829	1141.41321	1171.51465	-822.19153	1017.68658	1155.07007	-813.37494	877.01324	1167.72046	-861.83911	899.91028	1147.82043	-871.63666	832.31146	1144.56799	-643.59174	1475.06006	1605.46375	-628.77216	1292.7522	1706.22852	-564.7605	1160.95764	1740.10107	-480.28769	1072.51379	1750.00012	-381.07394	985.47699	1717.00403	-411.47162	961.84338	1759.20203	-346.9682	929.60699	1752.45764	-548.79718	967.36957	1321.59216	-578.57837	944.83063	1578.3407	-766.72937	1004.88428	1378.36768	-782.31055	1004.68323	1490.64856	-536.83496	670.8562	1243.27612	-504.58685	472.35767	1269.10352	-505.34079	277.31537	1266.02148	-439.25504	67.56808	1282.04187	-464.99606	36.04555	1335.0802	-282.35751	47.97016	1265.8457	-725.35028	654.79254	1634.47803	-777.82642	450.71484	1602.09766	-885.16229	293.82471	1604.10022	-966.95532	116.39975	1571.72253	-1008.66187	68.66514	1513.72681	-835.98969	31.30983	1607.43494	-711.83063	1766.82764	1451.03931	2845.15015	1033.9541	-3360.3728	NaN	NaN	NaN	NaN	NaN	NaN	NaN	NaN	NaN	NaN	NaN	NaN	NaN	NaN	NaN	NaN	NaN	NaN	NaN	NaN	NaN	NaN	NaN	NaN	NaN	NaN	NaN
27	0.26	-589.52802	1732.62476	1356.50024	-582.62073	1713.68726	1499.43823	-694.21484	1624.65344	1349.03052	-699.10767	1601.12927	1490.41248	-723.58081	1494.83838	1418.96179	-777.59955	1225.70654	1432.90955	-581.3493	1430.76892	1406.1665	-531.09021	1258.33081	1429.354	-780.17346	1331.14893	1493.76135	-658.79309	1462.15881	1237.95776	-722.27026	1271.30737	1170.20117	-768.2417	1139.49207	1169.29907	-808.65393	1015.27496	1153.35986	-798.88611	875.09955	1167.19055	-847.34882	897.46368	1146.45898	-856.36243	829.44183	1143.92334	-635.85254	1474.92346	1603.0249	-621.53265	1292.16895	1703.35413	-558.68109	1159.92896	1737.73767	-474.67545	1071.16284	1748.09863	-375.94669	983.48413	1715.6178	-406.54114	960.00043	1757.61572	-342.35522	927.03217	1750.8501	-537.06696	968.0304	1319.08813	-567.0639	944.65906	1575.4989	-754.89636	1004.72937	1374.48352	-771.50763	1003.30157	1486.55176	-527.1377	671.06952	1240.19275	-496.20251	472.91867	1265.76575	-497.45322	278.29547	1265.19019	-433.47076	66.43834	1279.16125	-462.69156	37.9687	1332.11365	-276.62314	43.22602	1265.6853	-715.59882	655.13141	1632.70361	-768.70923	451.44226	1601.51367	-879.24115	296.8158	1603.47522	-964.41809	121.10034	1572.04724	-1006.55017	74.33686	1513.95593	-835.67004	31.35454	1607.70398	-703.76593	1766.66724	1448.60168	2845.34863	1033.91272	-3360.38623	NaN	NaN	NaN	NaN	NaN	NaN	NaN	NaN	NaN	NaN	NaN	NaN	NaN	NaN	NaN	NaN	NaN	NaN	NaN	NaN	NaN	NaN	NaN	NaN	NaN	NaN	NaN
28	0.27	-581.21631	1733.14685	1353.97266	-574.32129	1714.02356	1496.9447	-685.52332	1624.94299	1346.34875	-690.72198	1601.10535	1487.34521	-714.75598	1494.77136	1415.86804	-767.4433	1225.17151	1429.84387	-572.31055	1431.27966	1403.71216	-521.13977	1259.22021	1426.84973	-771.07349	1330.39929	1490.32178	-649.16565	1462.04858	1234.93262	-711.09875	1270.1886	1167.07959	-755.64014	1137.87915	1166.85266	-794.7652	1013.15704	1151.38074	-783.66949	872.97498	1165.85547	-832.30713	895.07764	1145.14282	-840.69702	826.87854	1142.90149	-628.0719	1474.8811	1600.78186	-614.81561	1291.42896	1700.45325	-552.72589	1159.07202	1735.24463	-469.40674	1069.63904	1746.12402	-371.45828	981.13226	1713.953	-402.11902	958.14923	1756.18616	-338.34573	924.41431	1749.36157	-525.46448	968.95996	1316.3783	-555.47028	944.58417	1572.59497	-743.61151	1005.43707	1370.90833	-760.67102	1002.16779	1482.46082	-518.11176	672.45557	1236.20825	-486.38055	474.3024	1262.80249	-489.61252	279.88641	1259.97412	-429.84186	66.49507	1278.04712	-460.73352	38.29664	1331.24902	-273.81216	39.50171	1265.2334	-705.3844	655.77869	1630.67358	-758.78137	452.44351	1601.19238	-872.46741	300.17932	1602.99219	-961.19739	126.08661	1572.3656	-1003.8175	80.49603	1514.03406	-835.32867	31.37248	1608.01086	-695.55823	1766.69519	1446.05249	2845.73779	1034.20715	-3357.42017	NaN	NaN	NaN	NaN	NaN	NaN	NaN	NaN	NaN	NaN	NaN	NaN	NaN	NaN	NaN	NaN	NaN	NaN	NaN	NaN	NaN	NaN	NaN	NaN	NaN	NaN	NaN
29	0.28	-572.6875	1733.9751	1351.55237	-565.9433	1714.60718	1494.33875	-676.80939	1625.49219	1343.56165	-681.91754	1601.49231	1484.87	-705.89441	1495.1189	1412.89368	-757.44263	1225.10645	1426.90454	-563.4765	1432.10083	1401.09912	-511.42203	1260.45801	1424.18018	-761.42651	1329.3075	1486.29321	-639.49817	1462.22253	1231.86047	-699.45404	1269.37561	1164.14185	-742.59058	1136.35925	1164.23889	-780.03162	1011.22723	1149.42383	-767.70953	871.3847	1164.88892	-816.54236	892.81244	1143.37439	-824.35754	824.40558	1141.50977	-620.10388	1475.20203	1598.45276	-607.91748	1291.12659	1697.79163	-547.04987	1158.23279	1732.45984	-464.44412	1068.29126	1744.12036	-367.03372	978.91742	1712.66089	-398.24219	956.25964	1754.69727	-334.73523	921.70972	1748.11316	-513.85211	970.12097	1313.41284	-543.6405	944.7804	1569.49329	-732.08331	1006.81598	1367.46191	-749.7005	1001.4566	1478.75757	-508.94653	673.91345	1232.5592	-475.33591	475.96048	1260.7627	-480.86337	281.67142	1254.06873	-429.57288	66.93164	1278.6311	-460.60062	39.01926	1331.26941	-273.30579	37.46604	1264.74548	-694.59778	656.46149	1628.54163	-747.93066	453.60611	1600.95923	-864.86041	303.7616	1602.56921	-957.21448	131.60504	1572.75952	-1000.35681	87.50288	1514.16028	-834.93121	31.56118	1608.44812	-687.24982	1767.11377	1443.56396	2845.17993	1034.15417	-3360.28223	NaN	NaN	NaN	NaN	NaN	NaN	NaN	NaN	NaN	NaN	NaN	NaN	NaN	NaN	NaN	NaN	NaN	NaN	NaN	NaN	NaN	NaN	NaN	NaN	NaN	NaN	NaN
